<svg viewBox="0 0 400 500" xmlns="http://www.w3.org/2000/svg">
  <defs>
    <linearGradient id="bg" x1="0" y1="0" x2="1" y2="1">
      <stop offset="0%" stop-color="#1e1528"/><stop offset="100%" stop-color="#14101a"/>
    </linearGradient>
    <radialGradient id="glow" cx="50%" cy="42%" r="38%">
      <stop offset="0%" stop-color="#C9828D" stop-opacity="0.4"/><stop offset="100%" stop-color="#C9828D" stop-opacity="0"/>
    </radialGradient>
    <linearGradient id="glass" x1="0" y1="0" x2="1" y2="0">
      <stop offset="0%" stop-color="rgba(255,255,255,0.03)"/><stop offset="28%" stop-color="rgba(255,255,255,0.18)"/>
      <stop offset="65%" stop-color="rgba(255,255,255,0.09)"/><stop offset="100%" stop-color="rgba(255,255,255,0.02)"/>
    </linearGradient>
    <linearGradient id="cap" x1="0" y1="0" x2="1" y2="0">
      <stop offset="0%" stop-color="#8a4d58"/><stop offset="50%" stop-color="#C9828D"/><stop offset="100%" stop-color="#8a4d58"/>
    </linearGradient>
    <linearGradient id="neck" x1="0" y1="0" x2="1" y2="0">
      <stop offset="0%" stop-color="rgba(255,255,255,0.02)"/><stop offset="50%" stop-color="rgba(255,255,255,0.11)"/><stop offset="100%" stop-color="rgba(255,255,255,0.02)"/>
    </linearGradient>
  </defs>
  <rect width="400" height="500" fill="url(#bg)"/>
  <ellipse cx="200" cy="210" rx="130" ry="155" fill="url(#glow)"/>
  <!-- Vial body -->
  <rect x="152" y="148" width="96" height="198" rx="13" fill="url(#glass)" stroke="rgba(255,255,255,0.11)" stroke-width="1"/>
  <ellipse cx="200" cy="346" rx="48" ry="13" fill="rgba(255,255,255,0.05)"/>
  <rect x="155" y="153" width="8" height="183" rx="4" fill="rgba(255,255,255,0.09)"/>
  <!-- Neck -->
  <rect x="168" y="118" width="64" height="36" rx="6" fill="url(#neck)" stroke="rgba(255,255,255,0.07)" stroke-width="1"/>
  <!-- Cap -->
  <rect x="160" y="97" width="80" height="27" rx="5" fill="url(#cap)"/>
  <rect x="160" y="97" width="80" height="10" rx="5" fill="rgba(255,255,255,0.22)"/>
  <line x1="160" y1="109" x2="240" y2="109" stroke="rgba(0,0,0,0.18)" stroke-width="1"/>
  <line x1="160" y1="114" x2="240" y2="114" stroke="rgba(0,0,0,0.12)" stroke-width="1"/>
  <!-- Label -->
  <rect x="158" y="178" width="84" height="96" rx="4" fill="rgba(0,0,0,0.13)"/>
  <line x1="168" y1="186" x2="232" y2="186" stroke="rgba(255,255,255,0.18)" stroke-width="0.5"/>
  <line x1="168" y1="267" x2="232" y2="267" stroke="rgba(255,255,255,0.18)" stroke-width="0.5"/>
  <text x="200" y="237" text-anchor="middle" font-family="Georgia,'Times New Roman',serif" font-style="italic" font-weight="700" font-size="34" fill="white" opacity="0.93">MB</text>
  <text x="200" y="258" text-anchor="middle" font-family="Arial,sans-serif" font-size="7" font-weight="600" fill="#C9828D" letter-spacing="2.5" opacity="0.85">VELVET SKIN</text>
  <!-- Sparkles -->
  <circle cx="126" cy="133" r="1.5" fill="#C9828D" opacity="0.55"/>
  <circle cx="274" cy="108" r="1" fill="white" opacity="0.3"/>
  <circle cx="118" cy="285" r="1" fill="#C9828D" opacity="0.38"/>
  <circle cx="280" cy="250" r="1.5" fill="white" opacity="0.22"/>
  <circle cx="142" cy="365" r="1" fill="#e0a8b4" opacity="0.4"/>
  <!-- Product name below -->
  <text x="200" y="405" text-anchor="middle" font-family="Arial,sans-serif" font-size="12" font-weight="600" letter-spacing="4" fill="#C9828D" opacity="0.92">VELVET SKIN</text>
  <text x="200" y="425" text-anchor="middle" font-family="Arial,sans-serif" font-size="9" fill="rgba(255,255,255,0.38)" letter-spacing="2">GHK-CU · 50MG · LYOPHILISED</text>
</svg>
